<svg width="82" height="18" viewBox="0 0 82 18" fill="none" xmlns="http://www.w3.org/2000/svg">
<g clip-path="url(#clip0_16_11)">
<path d="M30.968 13.864C30.2107 13.864 29.528 13.704 28.92 13.384C28.3227 13.0533 27.8533 12.5893 27.512 11.992C27.1707 11.384 27 10.6693 27 9.848C27 9.176 27.1493 8.536 27.448 7.928C27.7573 7.3093 28.184 6.8133 28.728 6.44C29.2827 6.06667 29.912 5.88 30.616 5.88C31.2667 5.88 31.8213 6.01333 32.28 6.28C32.7493 6.536 33.1013 6.8453 33.336 7.208C33.5707 7.5707 33.688 7.896 33.688 8.184C33.688 8.3227 33.6453 8.456 33.56 8.584C33.4747 8.712 33.352 8.824 33.192 8.92L28.904 11.384C29.0533 11.7147 29.3147 11.9707 29.688 12.152C30.072 12.3333 30.4987 12.424 30.968 12.424C31.5867 12.424 32.1147 12.1947 32.552 11.736C32.7227 11.5653 32.8987 11.48 33.08 11.48C33.2933 11.48 33.4693 11.5493 33.608 11.688C33.7573 11.8267 33.832 11.9973 33.832 12.2C33.832 12.3707 33.768 12.5307 33.64 12.68C33.3413 13.0107 32.9413 13.2933 32.44 13.528C31.9493 13.752 31.4587 13.864 30.968 13.864ZM32.104 7.992C31.976 7.768 31.7947 7.6027 31.56 7.496C31.3253 7.3787 31.048 7.32 30.728 7.32C30.12 7.32 29.608 7.528 29.192 7.944C28.7867 8.36 28.552 8.872 28.488 9.48C28.4667 9.64 28.456 9.832 28.456 10.056L32.104 7.992ZM37.7234 13.848C37.1794 13.848 36.6887 13.7093 36.2514 13.432C35.8247 13.144 35.4834 12.728 35.2274 12.184C34.982 11.64 34.8594 10.9893 34.8594 10.232C34.8594 9.3147 35.0034 8.5307 35.2914 7.88C35.5794 7.2293 35.9794 6.73867 36.4914 6.408C37.0034 6.06667 37.5954 5.896 38.2674 5.896C38.8007 5.896 39.3714 6.01867 39.9794 6.264L40.0594 3.784C40.07 3.57067 40.15 3.38933 40.2994 3.24C40.4594 3.08 40.646 3 40.8594 3C41.062 3 41.238 3.08 41.3874 3.24C41.5474 3.38933 41.622 3.58133 41.6114 3.816L41.3874 13.128C41.3767 13.3413 41.2967 13.5173 41.1474 13.656C40.998 13.7947 40.8167 13.864 40.6034 13.864C40.4007 13.864 40.2247 13.8053 40.0754 13.688C39.9367 13.5707 39.8674 13.416 39.8674 13.224V12.936C39.59 13.192 39.2647 13.4107 38.8914 13.592C38.518 13.7627 38.1287 13.848 37.7234 13.848ZM37.8514 12.408C38.214 12.408 38.55 12.3333 38.8594 12.184C39.1794 12.024 39.43 11.832 39.6114 11.608C39.7927 11.384 39.8887 11.176 39.8994 10.984L39.9634 7.832C39.7714 7.704 39.526 7.592 39.2274 7.496C38.9287 7.3893 38.6407 7.336 38.3634 7.336C37.7127 7.336 37.222 7.5813 36.8914 8.072C36.5607 8.552 36.3954 9.256 36.3954 10.184C36.3954 10.952 36.5234 11.5173 36.7794 11.88C37.046 12.232 37.4034 12.408 37.8514 12.408ZM45.9228 13.912C45.3468 13.912 44.8881 13.7893 44.5468 13.544C44.2054 13.288 43.9494 12.8293 43.7788 12.168C43.6081 11.5067 43.5228 10.5573 43.5228 9.32C43.5228 8.904 43.5388 8.4453 43.5708 7.944C43.6028 7.4427 43.6454 7.0213 43.6988 6.68C43.7414 6.41333 43.8214 6.21067 43.9388 6.072C44.0561 5.93333 44.2268 5.864 44.4508 5.864C44.6641 5.864 44.8454 5.928 44.9948 6.056C45.1441 6.184 45.2188 6.37067 45.2188 6.616L45.1868 7.064C45.0801 7.9707 45.0268 8.84 45.0268 9.672C45.0268 10.76 45.1174 11.5013 45.2988 11.896C45.4908 12.28 45.7521 12.472 46.0828 12.472C46.4668 12.472 46.8614 12.3707 47.2668 12.168C47.6721 11.9547 47.9601 11.752 48.1308 11.56C48.1948 11.496 48.2268 11.3627 48.2268 11.16L48.2588 6.6C48.2588 6.38667 48.3334 6.21067 48.4828 6.072C48.6428 5.93333 48.8188 5.864 49.0108 5.864C49.2134 5.864 49.3894 5.93333 49.5388 6.072C49.6988 6.21067 49.7788 6.38667 49.7788 6.6V13.096C49.7788 13.2987 49.6988 13.48 49.5388 13.64C49.3894 13.7893 49.2134 13.864 49.0108 13.864C48.7974 13.864 48.6054 13.8 48.4348 13.672C48.2748 13.5333 48.1948 13.3627 48.1948 13.16V12.984C47.7894 13.272 47.4108 13.5013 47.0588 13.672C46.7174 13.832 46.3388 13.912 45.9228 13.912ZM54.988 13.864C54.348 13.864 53.7613 13.7093 53.228 13.4C52.6947 13.0907 52.2733 12.6693 51.964 12.136C51.6547 11.592 51.5 11 51.5 10.36C51.5 9.6347 51.6707 8.9253 52.012 8.232C52.3533 7.5387 52.8013 6.9733 53.356 6.536C53.9107 6.09867 54.4973 5.88 55.116 5.88C55.6813 5.88 56.1347 5.97067 56.476 6.152C56.828 6.32267 57.1693 6.6 57.5 6.984C57.66 7.1547 57.74 7.3413 57.74 7.544C57.74 7.7467 57.6653 7.9227 57.516 8.072C57.3667 8.2107 57.1853 8.28 56.972 8.28C56.8333 8.28 56.7213 8.2587 56.636 8.216C56.5613 8.1733 56.4707 8.088 56.364 7.96C56.1827 7.7573 56.0013 7.6027 55.82 7.496C55.6493 7.3893 55.42 7.336 55.132 7.336C54.8013 7.336 54.4653 7.48 54.124 7.768C53.7933 8.056 53.5213 8.4347 53.308 8.904C53.1053 9.3627 53.004 9.8373 53.004 10.328C53.004 10.7547 53.0947 11.128 53.276 11.448C53.468 11.7573 53.7133 11.9973 54.012 12.168C54.3107 12.328 54.6253 12.408 54.956 12.408C55.3827 12.408 55.7293 12.328 55.996 12.168C56.2733 12.008 56.5187 11.7893 56.732 11.512C56.9347 11.2453 57.164 11.112 57.42 11.112C57.6227 11.112 57.7987 11.1867 57.948 11.336C58.0973 11.4747 58.172 11.6347 58.172 11.816C58.172 12.0293 58.1133 12.2107 57.996 12.36C57.6867 12.776 57.2653 13.1333 56.732 13.432C56.1987 13.72 55.6173 13.864 54.988 13.864ZM64.6476 14.024C64.4343 14.024 64.2583 13.9653 64.1196 13.848C63.9916 13.7307 63.9276 13.576 63.9276 13.384V13.16C63.4903 13.6293 62.8823 13.864 62.1036 13.864C61.517 13.864 60.989 13.72 60.5196 13.432C60.0503 13.144 59.6823 12.7387 59.4156 12.216C59.149 11.6827 59.0156 11.08 59.0156 10.408C59.0156 9.6613 59.1756 8.9413 59.4956 8.248C59.8156 7.544 60.2636 6.9733 60.8396 6.536C61.4263 6.09867 62.0983 5.88 62.8556 5.88C63.3463 5.88 63.789 5.94933 64.1836 6.088C64.5783 6.216 64.989 6.376 65.4156 6.568V13.224C65.4156 13.4373 65.341 13.624 65.1916 13.784C65.0423 13.944 64.861 14.024 64.6476 14.024ZM62.2156 12.376C62.525 12.376 62.8236 12.312 63.1116 12.184C63.4103 12.056 63.6556 11.9013 63.8476 11.72L63.8956 7.544C63.5863 7.416 63.2503 7.352 62.8876 7.352C62.429 7.352 62.0236 7.496 61.6716 7.784C61.3196 8.0613 61.0476 8.4347 60.8556 8.904C60.6636 9.3627 60.5676 9.8533 60.5676 10.376C60.5676 11.0267 60.7116 11.5227 60.9996 11.864C61.2876 12.2053 61.693 12.376 62.2156 12.376ZM68.4526 13.864C68.2606 13.864 68.0846 13.7893 67.9246 13.64C67.7646 13.48 67.6846 13.2987 67.6846 13.096L67.6526 3.864C67.6526 3.66133 67.7273 3.48533 67.8766 3.336C68.0366 3.18667 68.2233 3.112 68.4366 3.112C68.6606 3.112 68.842 3.192 68.9806 3.352C69.13 3.50133 69.2046 3.68267 69.2046 3.896L69.2206 9.08C69.6686 8.696 70.1913 8.2 70.7886 7.592C71.386 6.984 71.8926 6.42933 72.3086 5.928C72.4793 5.71467 72.6873 5.608 72.9326 5.608C73.146 5.608 73.322 5.67733 73.4606 5.816C73.61 5.95467 73.6846 6.13067 73.6846 6.344C73.6846 6.52533 73.6313 6.68 73.5246 6.808C73.2473 7.1813 72.8953 7.592 72.4686 8.04C72.0526 8.488 71.6686 8.8773 71.3166 9.208L73.9566 12.52C74.0953 12.68 74.1646 12.8453 74.1646 13.016C74.1646 13.24 74.09 13.432 73.9406 13.592C73.802 13.7413 73.6206 13.816 73.3966 13.816C73.1406 13.816 72.938 13.7253 72.7886 13.544C71.9566 12.424 71.1673 11.4 70.4206 10.472L70.1646 10.136C69.9406 10.3067 69.6313 10.52 69.2366 10.776V13.096C69.2366 13.2987 69.162 13.48 69.0126 13.64C68.8633 13.7893 68.6766 13.864 68.4526 13.864ZM78.6711 13.864C77.9138 13.864 77.2311 13.704 76.6231 13.384C76.0258 13.0533 75.5565 12.5893 75.2151 11.992C74.8738 11.384 74.7031 10.6693 74.7031 9.848C74.7031 9.176 74.8525 8.536 75.1511 7.928C75.4605 7.3093 75.8871 6.8133 76.4311 6.44C76.9858 6.06667 77.6151 5.88 78.3191 5.88C78.9698 5.88 79.5245 6.01333 79.9831 6.28C80.4525 6.536 80.8045 6.8453 81.0391 7.208C81.2738 7.5707 81.3911 7.896 81.3911 8.184C81.3911 8.3227 81.3485 8.456 81.2631 8.584C81.1778 8.712 81.0551 8.824 80.8951 8.92L76.6071 11.384C76.7565 11.7147 77.0178 11.9707 77.3911 12.152C77.7751 12.3333 78.2018 12.424 78.6711 12.424C79.2898 12.424 79.8178 12.1947 80.2551 11.736C80.4258 11.5653 80.6018 11.48 80.7831 11.48C80.9965 11.48 81.1725 11.5493 81.3111 11.688C81.4605 11.8267 81.5351 11.9973 81.5351 12.2C81.5351 12.3707 81.4711 12.5307 81.3431 12.68C81.0445 13.0107 80.6445 13.2933 80.1431 13.528C79.6525 13.752 79.1618 13.864 78.6711 13.864ZM79.8071 7.992C79.6791 7.768 79.4978 7.6027 79.2631 7.496C79.0285 7.3787 78.7511 7.32 78.4311 7.32C77.8231 7.32 77.3111 7.528 76.8951 7.944C76.4898 8.36 76.2551 8.872 76.1911 9.48C76.1698 9.64 76.1591 9.832 76.1591 10.056L79.8071 7.992Z" fill="white"/>
<path d="M11 0L0 6L11 12L20 7.09V14H22V6M4 10.18V14.18L11 18L18 14.18V10.18L11 14L4 10.18Z" fill="#0052F0"/>
</g>
<defs>
<clipPath id="clip0_16_11">
<rect width="82" height="18" fill="white"/>
</clipPath>
</defs>
</svg>
